<?xml version="1.0" encoding="UTF-8" standalone="no"?>
<!-- Created with Inkscape (http://www.inkscape.org/) -->

<svg
   width="17.01964mm"
   height="17.01963mm"
   viewBox="0 0 17.01964 17.01963"
   version="1.1"
   id="svg55976"
   inkscape:version="1.1.1 (3bf5ae0d25, 2021-09-20)"
   xmlns:inkscape="http://www.inkscape.org/namespaces/inkscape"
   xmlns:sodipodi="http://sodipodi.sourceforge.net/DTD/sodipodi-0.dtd"
   xmlns="http://www.w3.org/2000/svg"
   xmlns:svg="http://www.w3.org/2000/svg">
  <sodipodi:namedview
     id="namedview55978"
     pagecolor="#ffffff"
     bordercolor="#666666"
     borderopacity="1.0"
     inkscape:pageshadow="2"
     inkscape:pageopacity="0.0"
     inkscape:pagecheckerboard="0"
     inkscape:document-units="mm"
     showgrid="false"
     fit-margin-top="0"
     fit-margin-left="0"
     fit-margin-right="0"
     fit-margin-bottom="0"
     inkscape:zoom="0.77771465"
     inkscape:cx="88.078578"
     inkscape:cy="104.79422"
     inkscape:window-width="2560"
     inkscape:window-height="1361"
     inkscape:window-x="1911"
     inkscape:window-y="-9"
     inkscape:window-maximized="1"
     inkscape:current-layer="layer1" />
  <defs
     id="defs55973" />
  <g
     inkscape:label="Ebene 1"
     inkscape:groupmode="layer"
     id="layer1"
     transform="translate(-81.644819,-120.76854)">
    <path
       id="path40149"
       style="fill:#000000;fill-opacity:1;stroke:none;stroke-width:1.02264;stroke-miterlimit:4;stroke-dasharray:none;stroke-opacity:1"
       d="m 90.154379,120.76854 a 8.509795,8.509795 0 0 0 -8.50956,8.50956 8.509795,8.509795 0 0 0 8.50956,8.51007 8.509795,8.509795 0 0 0 8.51008,-8.51007 8.509795,8.509795 0 0 0 -8.51008,-8.50956 z m 0.18345,3.98529 h 1.07487 l -1.9637,8.20105 h -1.07487 z m -4.98677,1.78283 c 0.35139,0 0.66662,0.05 0.94567,0.14987 0.2825,0.0965 0.52022,0.23082 0.71314,0.40307 0.19637,0.16881 0.34451,0.36863 0.44442,0.59945 0.10335,0.22737 0.15503,0.4737 0.15503,0.73897 0,0.34796 -0.0758,0.65802 -0.22738,0.93018 -0.15158,0.27216 -0.39274,0.48576 -0.72347,0.64079 v 0.0207 c 0.16192,0.0448 0.31006,0.11368 0.44442,0.2067 0.13435,0.093 0.24977,0.20671 0.34623,0.34107 0.0999,0.13436 0.17742,0.28766 0.23254,0.45992 0.0551,0.16881 0.0827,0.35657 0.0827,0.56327 0,0.33762 -0.0551,0.64251 -0.16536,0.91467 -0.1068,0.27217 -0.27044,0.50471 -0.49093,0.69763 -0.22048,0.19293 -0.49781,0.34107 -0.83199,0.44442 -0.33072,0.10335 -0.7183,0.15503 -1.16272,0.15503 -0.12402,0 -0.25493,-0.007 -0.39274,-0.0207 -0.1378,-0.0103 -0.2756,-0.0293 -0.41341,-0.0568 -0.13436,-0.0241 -0.26699,-0.0551 -0.39791,-0.093 -0.12747,-0.0379 -0.2446,-0.0827 -0.3514,-0.13436 v -1.06453 c 0.19293,0.0896 0.41514,0.16536 0.66663,0.22737 0.25494,0.062 0.53055,0.093 0.82682,0.093 0.26872,0 0.49437,-0.031 0.67696,-0.093 0.18604,-0.062 0.3359,-0.14641 0.44959,-0.25321 0.11369,-0.10335 0.19465,-0.22566 0.24288,-0.36691 0.0517,-0.1378 0.0775,-0.28422 0.0775,-0.43924 0,-0.22738 -0.0482,-0.41514 -0.14469,-0.56328 -0.093,-0.15158 -0.22738,-0.26527 -0.40308,-0.34106 -0.0896,-0.0379 -0.19292,-0.0637 -0.31006,-0.0775 -0.11368,-0.0172 -0.25149,-0.0258 -0.41341,-0.0258 h -0.80615 v -1.03869 h 0.54777 c 0.15847,0 0.29972,-0.007 0.42375,-0.0207 0.12402,-0.0172 0.23599,-0.0465 0.33589,-0.0879 0.19637,-0.0792 0.34796,-0.19982 0.45476,-0.36174 0.1068,-0.16536 0.16019,-0.37207 0.16019,-0.62011 0,-0.16192 -0.031,-0.29801 -0.093,-0.40825 -0.062,-0.11369 -0.14642,-0.20498 -0.25322,-0.27388 -0.1068,-0.0689 -0.23254,-0.11886 -0.37724,-0.14986 -0.14469,-0.031 -0.28766,-0.0465 -0.42891,-0.0465 -0.28939,0 -0.55811,0.0293 -0.80615,0.0879 -0.2446,0.0551 -0.48404,0.13091 -0.71831,0.22737 v -1.05937 c 0.22393,-0.0861 0.47026,-0.15847 0.73898,-0.21704 0.26871,-0.0586 0.58394,-0.0879 0.94568,-0.0879 z m 8.3199,0.12403 h 1.25057 l -1.82935,3.99975 0.0103,0.0155 c 0.27905,-0.031 0.60806,-0.0465 0.98702,-0.0465 h 0.53743 v -1.28158 h 1.22474 v 1.28158 h 0.89917 v 1.03869 h -0.89917 v 1.99988 h -1.22474 v -1.99988 h -2.8422 v -0.87333 z" />
  </g>
</svg>
