<?xml version="1.0" encoding="UTF-8" standalone="no"?>
<!-- Created with Inkscape (http://www.inkscape.org/) -->

<svg
   width="24.532614mm"
   height="22.433781mm"
   viewBox="0 0 24.532614 22.433781"
   version="1.1"
   id="svg33776"
   inkscape:version="1.1.1 (3bf5ae0d25, 2021-09-20)"
   xmlns:inkscape="http://www.inkscape.org/namespaces/inkscape"
   xmlns:sodipodi="http://sodipodi.sourceforge.net/DTD/sodipodi-0.dtd"
   xmlns="http://www.w3.org/2000/svg"
   xmlns:svg="http://www.w3.org/2000/svg">
  <sodipodi:namedview
     id="namedview33778"
     pagecolor="#ffffff"
     bordercolor="#666666"
     borderopacity="1.0"
     inkscape:pageshadow="2"
     inkscape:pageopacity="0.0"
     inkscape:pagecheckerboard="0"
     inkscape:document-units="mm"
     showgrid="false"
     fit-margin-top="0"
     fit-margin-left="0"
     fit-margin-right="0"
     fit-margin-bottom="0"
     inkscape:zoom="6.2217172"
     inkscape:cx="46.69129"
     inkscape:cy="19.367644"
     inkscape:window-width="2560"
     inkscape:window-height="1361"
     inkscape:window-x="1911"
     inkscape:window-y="-9"
     inkscape:window-maximized="1"
     inkscape:current-layer="layer1" />
  <defs
     id="defs33773" />
  <g
     inkscape:label="Ebene 1"
     inkscape:groupmode="layer"
     id="layer1"
     transform="translate(-74.486249,-171.13363)">
    <path
       id="rect30715-1-6"
       style="fill:#000000;fill-opacity:1;stroke:none;stroke-width:1.95774;stroke-miterlimit:4;stroke-dasharray:none;stroke-opacity:1"
       d="m 80.829578,171.13363 c -1.865321,0 -3.36672,1.5014 -3.36672,3.36672 v 1.97559 c 0.672272,-0.37918 1.627227,-0.58357 2.983799,-0.57981 3.935915,0.0702 5.792996,2.82237 5.801196,6.87814 7.94e-4,0.25323 0.006,0.55951 0.01291,0.88056 h 2.24999 c 1.86532,0 3.366719,-1.50191 3.366719,-3.36723 v -5.78725 c 0,-1.86532 -1.501399,-3.36672 -3.366719,-3.36672 z m 17.277498,0.55552 c -0.242385,-0.001 -0.548405,0.10049 -0.934826,0.33538 l -4.179591,2.54042 c -0.01042,0.006 -0.02109,0.0118 -0.03152,0.0176 v 6.02237 l 4.211114,2.21692 c 2.078455,1.09422 1.838132,-1.29462 1.838132,-2.90318 v -4.99091 c 0,-1.30696 0.147037,-3.23386 -0.903306,-3.23857 z m -17.811316,5.45032 c -1.114192,-0.004 -2.242918,0.44392 -3.061827,1.33893 -0.818912,0.89502 -1.304116,2.19905 -1.324983,3.80184 -0.01013,0.77835 -0.01024,1.88289 -0.0078,2.79259 -0.794165,0.0631 -1.414901,0.72387 -1.414901,1.53479 v 5.42034 c 0,0.85289 0.686548,1.53945 1.539441,1.53945 h 8.505425 c 0.85289,0 1.539957,-0.68656 1.539957,-1.53945 v -5.42034 c 0,-0.81143 -0.622091,-1.47243 -1.416968,-1.53479 -0.0019,-0.98749 -0.0032,-1.84262 -0.0057,-2.76159 -0.0044,-1.66434 -0.478936,-2.98517 -1.306381,-3.87573 -0.827447,-0.89055 -1.961533,-1.29224 -3.046327,-1.29604 z m -0.0072,2.07739 c 0.602406,0.002 1.123682,0.19343 1.531173,0.632 0.40749,0.43858 0.7479,1.18344 0.751374,2.46755 0.0024,0.91427 0.0041,1.76383 0.0057,2.75126 h -4.598169 c -0.0024,-0.9077 -0.0026,-2.00557 0.0072,-2.76056 0.01574,-1.20806 0.358536,-1.96519 0.78083,-2.42672 0.422294,-0.46154 0.947439,-0.66554 1.52187,-0.66353 z m 0.08217,1.71824 c -0.704646,-0.0118 -1.434991,0.71861 -1.372526,2.06189 -5.29e-4,0.0377 -2.33e-4,0.0792 -5.29e-4,0.11834 0.526701,0.34103 1.155123,0.5395 1.83193,0.5395 h 0.776697 c 0.0054,-0.31416 0.0095,-0.61496 0.0088,-0.86661 -0.02058,-1.25464 -0.622623,-1.8427 -1.244368,-1.85312 z m -0.09199,6.41408 c 0.58157,0 1.049549,0.4685 1.049549,1.05007 v 1.83709 c 0,0.58157 -0.467979,1.04955 -1.049549,1.04955 -0.58157,0 -1.050065,-0.46798 -1.050065,-1.04955 v -1.83709 c 0,-0.58157 0.468495,-1.05007 1.050065,-1.05007 z" />
  </g>
</svg>
