<?xml version="1.0" encoding="UTF-8" standalone="no"?>
<!-- Created with Inkscape (http://www.inkscape.org/) -->

<svg
   width="26.949934mm"
   height="23.944773mm"
   viewBox="0 0 26.949934 23.944773"
   version="1.1"
   id="svg31055"
   inkscape:version="1.1.1 (3bf5ae0d25, 2021-09-20)"
   sodipodi:docname="FreieKamera.svg"
   xmlns:inkscape="http://www.inkscape.org/namespaces/inkscape"
   xmlns:sodipodi="http://sodipodi.sourceforge.net/DTD/sodipodi-0.dtd"
   xmlns="http://www.w3.org/2000/svg"
   xmlns:svg="http://www.w3.org/2000/svg">
  <sodipodi:namedview
     id="namedview31057"
     pagecolor="#ffffff"
     bordercolor="#666666"
     borderopacity="1.0"
     inkscape:pageshadow="2"
     inkscape:pageopacity="0.0"
     inkscape:pagecheckerboard="0"
     inkscape:document-units="mm"
     showgrid="false"
     fit-margin-top="0"
     fit-margin-left="0"
     fit-margin-right="0"
     fit-margin-bottom="0"
     inkscape:zoom="2.1997092"
     inkscape:cx="80.692484"
     inkscape:cy="35.686535"
     inkscape:window-width="2560"
     inkscape:window-height="1361"
     inkscape:window-x="1911"
     inkscape:window-y="-9"
     inkscape:window-maximized="1"
     inkscape:current-layer="layer1" />
  <defs
     id="defs31052" />
  <g
     inkscape:label="Ebene 1"
     inkscape:groupmode="layer"
     id="layer1"
     transform="translate(-66.813695,-124.79048)">
    <path
       id="rect30715-1-4"
       style="fill:#000000;fill-opacity:1;stroke:none;stroke-width:1.95774;stroke-miterlimit:4;stroke-dasharray:none;stroke-opacity:1"
       d="m 75.574344,124.79052 c -1.86532,0 -3.366719,1.50191 -3.366719,3.36723 v 5.78673 c 0,0.2122 0.01914,0.41952 0.05633,0.62064 0.468607,-0.72502 0.921907,-1.41801 0.921907,-1.41801 l 1.917714,-2.98018 c 0.676878,-0.99929 1.251603,-0.0543 1.251603,-0.0543 l 3.795633,5.80327 c 0,0 0.991431,1.20164 -0.491961,1.21078 H 78.99946 v 0.185 h 4.256069 c 1.865323,0 3.366719,-1.50192 3.366719,-3.36724 v -5.78673 c 0,-1.86532 -1.501396,-3.36723 -3.366719,-3.36723 z m 17.2775,0.55552 c -0.242387,-0.001 -0.548407,0.10048 -0.934828,0.33538 l -4.179588,2.54041 c -0.01045,0.006 -0.02109,0.0118 -0.03152,0.0176 v 6.02237 l 4.211111,2.21692 c 2.078455,1.09423 1.838132,-1.29462 1.838132,-2.90318 v -4.99091 c 0,-1.30696 0.147034,-3.23386 -0.903304,-3.23856 z m -17.085262,6.45129 c -0.09701,7.9e-4 -0.209962,0.0658 -0.329178,0.26199 l -0.982372,1.70171 c 0,0 -0.694486,1.18248 -0.921906,1.5968 -0.0862,0.15704 -0.418473,0.70529 0.303858,0.67645 h 1.075386 v 3.18998 h -3.862297 v -0.98185 c -0.0052,-0.76005 -0.69143,-0.25218 -0.69143,-0.25218 l -3.31401,1.9451 c 0,0 -0.539704,0.29398 0.03101,0.64079 l 1.701705,0.98288 c 0,0 1.182476,0.69449 1.596802,0.92191 0.157031,0.0862 0.704761,0.41899 0.675927,-0.30334 v -1.13171 h 3.862297 v 3.4525 h -0.952913 c -0.722331,-0.0288 -0.390054,0.51941 -0.303858,0.67644 0.22742,0.41433 0.921909,1.5968 0.921909,1.5968 l 0.982885,1.70171 c 0.34681,0.57071 0.641305,0.031 0.641305,0.031 l 1.944584,-3.31401 c 0,0 0.508376,-0.68673 -0.251667,-0.69195 h -1.16065 v -3.4525 h 4.047813 v 1.15341 c 0.0052,0.76005 0.691433,0.25167 0.691433,0.25167 l 3.314525,-1.94459 c 0,0 0.539692,-0.29449 -0.03101,-0.6413 l -1.701705,-0.98289 c 0,1e-5 -1.182476,-0.69448 -1.5968,-0.9219 -0.157033,-0.0862 -0.705279,-0.41847 -0.676447,0.30385 v 0.96015 h -4.047813 v -3.18998 h 1.037662 c 0.760044,-0.005 0.252182,-0.69195 0.252182,-0.69195 l -1.945103,-3.31401 c 0,0 -0.126402,-0.23251 -0.311608,-0.23099 z" />
  </g>
</svg>
