<?xml version="1.0" encoding="UTF-8" standalone="no"?>
<!-- Created with Inkscape (http://www.inkscape.org/) -->

<svg
   width="47.008873mm"
   height="39.240517mm"
   viewBox="0 0 47.008873 39.240516"
   version="1.1"
   id="svg13866"
   inkscape:version="1.1.1 (3bf5ae0d25, 2021-09-20)"
   xmlns:inkscape="http://www.inkscape.org/namespaces/inkscape"
   xmlns:sodipodi="http://sodipodi.sourceforge.net/DTD/sodipodi-0.dtd"
   xmlns="http://www.w3.org/2000/svg"
   xmlns:svg="http://www.w3.org/2000/svg">
  <sodipodi:namedview
     id="namedview13868"
     pagecolor="#ffffff"
     bordercolor="#666666"
     borderopacity="1.0"
     inkscape:pageshadow="2"
     inkscape:pageopacity="0.0"
     inkscape:pagecheckerboard="0"
     inkscape:document-units="mm"
     showgrid="false"
     fit-margin-top="0"
     fit-margin-left="0"
     fit-margin-right="0"
     fit-margin-bottom="0"
     inkscape:zoom="0.77771465"
     inkscape:cx="-457.10853"
     inkscape:cy="253.94918"
     inkscape:window-width="2560"
     inkscape:window-height="1361"
     inkscape:window-x="1911"
     inkscape:window-y="-9"
     inkscape:window-maximized="1"
     inkscape:current-layer="layer1" />
  <defs
     id="defs13863" />
  <g
     inkscape:label="Ebene 1"
     inkscape:groupmode="layer"
     id="layer1"
     transform="translate(-36.409664,-94.913052)">
    <path
       id="rect5431-8-1"
       style="fill:#000000;stroke-width:0.593204"
       d="m 204.66992,358.72656 v 0.002 c -10.84214,0 -19.07422,2.37304 -19.07422,2.37304 v 0.041 14.84961 a 54.886629,55.068144 0 0 0 -15.8789,9.22851 l -12.94922,-7.47656 c 0,0 -6.58594,6.66598 -11.67383,15.47852 -5.42109,9.38959 -7.48242,17.70507 -7.48242,17.70507 l 13.03906,7.5293 a 54.886629,55.068144 0 0 0 -0.7832,9.11328 54.886629,55.068144 0 0 0 0.78515,9.11328 l -13.04101,7.5293 c 0,0 2.47653,9.03907 7.56445,17.85156 5.42109,9.3896 11.5918,15.33008 11.5918,15.33008 l 12.94922,-7.47656 a 54.886629,55.068144 0 0 0 15.8789,9.22656 v 14.89453 c 0,0 9.06638,2.375 19.24219,2.375 5.38994,0 10.12993,-0.58741 13.53906,-1.17773 2.11506,-4.57963 4.14887,-8.87332 5.53516,-11.51563 v -4.57617 a 54.886629,55.068144 0 0 0 4.69531,-2.06445 l 15.66406,-20.04688 c -5.34746,-5.51738 -9.45356,-11.64068 -12.09375,-17.87695 a 29.819424,29.819424 0 0 1 -0.39453,0.95508 29.819424,29.819424 0 0 1 -0.64062,1.25976 29.819424,29.819424 0 0 1 -0.88867,1.60547 29.819424,29.819424 0 0 1 -0.77539,1.19532 29.819424,29.819424 0 0 1 -1.04883,1.47851 29.819424,29.819424 0 0 1 -0.90821,1.12109 29.819424,29.819424 0 0 1 -1.20507,1.34766 29.819424,29.819424 0 0 1 -1.01368,1.01367 29.819424,29.819424 0 0 1 -1.34375,1.20117 29.819424,29.819424 0 0 1 -1.12695,0.91211 29.819424,29.819424 0 0 1 -1.47656,1.04883 29.819424,29.819424 0 0 1 -1.19531,0.77539 29.819424,29.819424 0 0 1 -1.61328,0.89258 29.819424,29.819424 0 0 1 -1.24219,0.63281 29.819424,29.819424 0 0 1 -1.76367,0.73047 29.819424,29.819424 0 0 1 -1.23243,0.47266 29.819424,29.819424 0 0 1 -1.91406,0.55078 29.819424,29.819424 0 0 1 -1.21875,0.32812 29.819424,29.819424 0 0 1 -2.08984,0.35352 29.819424,29.819424 0 0 1 -1.10742,0.17578 29.819424,29.819424 0 0 1 -3.22461,0.18164 29.819424,29.819424 0 0 1 -3.22461,-0.18164 29.819424,29.819424 0 0 1 -1.125,-0.17773 29.819424,29.819424 0 0 1 -2.07422,-0.35157 29.819424,29.819424 0 0 1 -1.23242,-0.33007 29.819424,29.819424 0 0 1 -1.89258,-0.54493 29.819424,29.819424 0 0 1 -1.25781,-0.48437 29.819424,29.819424 0 0 1 -1.74415,-0.72266 29.819424,29.819424 0 0 1 -1.23437,-0.6289 29.819424,29.819424 0 0 1 -1.62305,-0.89649 29.819424,29.819424 0 0 1 -1.20312,-0.78125 29.819424,29.819424 0 0 1 -1.46485,-1.03906 29.819424,29.819424 0 0 1 -1.13476,-0.91992 29.819424,29.819424 0 0 1 -1.32422,-1.1836 29.819424,29.819424 0 0 1 -1.04687,-1.04687 29.819424,29.819424 0 0 1 -1.17188,-1.31055 29.819424,29.819424 0 0 1 -0.92383,-1.14062 29.819424,29.819424 0 0 1 -1.05664,-1.49024 29.819424,29.819424 0 0 1 -0.76562,-1.17968 29.819424,29.819424 0 0 1 -0.88086,-1.59375 29.819424,29.819424 0 0 1 -0.65235,-1.27539 29.819424,29.819424 0 0 1 -0.70117,-1.69727 29.819424,29.819424 0 0 1 -0.50391,-1.31445 29.819424,29.819424 0 0 1 -0.52734,-1.82618 29.819424,29.819424 0 0 1 -0.34375,-1.28125 29.819424,29.819424 0 0 1 -0.35351,-2.08789 29.819424,29.819424 0 0 1 -0.17579,-1.10742 29.819424,29.819424 0 0 1 -0.18164,-3.22461 29.819424,29.819424 0 0 1 0.18164,-3.22461 29.819424,29.819424 0 0 1 0.17774,-1.125 29.819424,29.819424 0 0 1 0.35156,-2.07226 29.819424,29.819424 0 0 1 0.34375,-1.28125 29.819424,29.819424 0 0 1 0.52734,-1.82617 29.819424,29.819424 0 0 1 0.50391,-1.31446 29.819424,29.819424 0 0 1 0.70117,-1.69726 29.819424,29.819424 0 0 1 0.65235,-1.27539 29.819424,29.819424 0 0 1 0.8789,-1.58985 29.819424,29.819424 0 0 1 0.77344,-1.1914 29.819424,29.819424 0 0 1 1.05078,-1.48243 29.819424,29.819424 0 0 1 0.91602,-1.13085 29.819424,29.819424 0 0 1 1.18359,-1.32422 29.819424,29.819424 0 0 1 1.04297,-1.04297 29.819424,29.819424 0 0 1 1.32422,-1.1836 29.819424,29.819424 0 0 1 1.13476,-0.91992 29.819424,29.819424 0 0 1 1.45508,-1.03125 29.819424,29.819424 0 0 1 1.22852,-0.79883 29.819424,29.819424 0 0 1 1.58008,-0.87109 29.819424,29.819424 0 0 1 1.26562,-0.64648 29.819424,29.819424 0 0 1 1.71094,-0.70899 29.819424,29.819424 0 0 1 1.30664,-0.5 29.819424,29.819424 0 0 1 1.82617,-0.52734 29.819424,29.819424 0 0 1 1.28125,-0.34375 29.819424,29.819424 0 0 1 2.07227,-0.35156 29.819424,29.819424 0 0 1 1.125,-0.17774 29.819424,29.819424 0 0 1 3.22461,-0.18164 29.819424,29.819424 0 0 1 3.22461,0.18164 29.819424,29.819424 0 0 1 1.10742,0.17578 29.819424,29.819424 0 0 1 2.08789,0.35352 29.819424,29.819424 0 0 1 1.26758,0.33984 29.819424,29.819424 0 0 1 1.84765,0.5332 29.819424,29.819424 0 0 1 1.29492,0.4961 29.819424,29.819424 0 0 1 1.70899,0.70703 29.819424,29.819424 0 0 1 1.28906,0.6582 29.819424,29.819424 0 0 1 1.5625,0.86328 29.819424,29.819424 0 0 1 1.22266,0.79297 29.819424,29.819424 0 0 1 1.46484,1.04102 29.819424,29.819424 0 0 1 1.12695,0.91211 29.819424,29.819424 0 0 1 1.34375,1.20117 29.819424,29.819424 0 0 1 1.00977,1.00976 29.819424,29.819424 0 0 1 1.21484,1.36133 29.819424,29.819424 0 0 1 0.90235,1.11328 29.819424,29.819424 0 0 1 1.04297,1.46875 29.819424,29.819424 0 0 1 0.7832,1.20508 29.819424,29.819424 0 0 1 0.22656,0.41016 c 0.76537,-2.07193 1.7781,-4.04947 3.05274,-5.90039 5.4314,-7.88659 14.94688,-12.40363 26.45312,-12.5586 1.6542,-0.0223 3.3302,0.0493 5.01953,0.20508 -0.22907,-0.41702 -0.43502,-0.83104 -0.67578,-1.24804 -5.42109,-9.3896 -11.5957,-15.33204 -11.5957,-15.33204 l -0.0332,0.0234 -12.88671,7.43945 a 54.886629,55.068144 0 0 0 -15.9043,-9.23828 v -14.82422 -0.0391 c 0,0 -9.06634,-2.375 -19.24219,-2.375 z m 57.31446,40.99219 a 44.082444,31.573532 34.379925 0 0 -23.44141,10.91406 44.082444,31.573532 34.379925 0 0 -2.41211,25.02735 37.308662,26.566433 33.135595 0 1 3.47852,-14.74805 37.308662,26.566433 33.135595 0 1 46.23437,-0.60156 37.308662,26.566433 33.135595 0 1 15.36914,42.67773 37.308662,26.566433 33.135595 0 1 -15.35937,8.76367 44.082444,31.573532 34.379925 0 0 25.13671,-10.8789 44.082444,31.573532 34.379925 0 0 -18.07421,-50.95899 44.082444,31.573532 34.379925 0 0 -30.93164,-10.19531 z m -1.00782,17.22656 a 31.128052,22.147094 32.972427 0 0 -16.64062,7.61524 31.128052,22.147094 32.972427 0 0 4.58398,28.11523 l 10.23633,-13.10156 c 2.56747,-3.28607 8.92893,-3.65519 13.57227,0.10937 4.64352,3.76453 5.75688,10.19643 3.18945,13.48243 l -9.21485,11.79492 a 31.128052,22.147094 32.972427 0 0 29.06055,-5.34766 31.128052,22.147094 32.972427 0 0 -12.83008,-35.55273 31.128052,22.147094 32.972427 0 0 -21.95703,-7.11524 z m 4.73828,25.42383 c -1.40897,-7.9e-4 -2.7223,0.53876 -3.60546,1.625 l -31.88868,39.25195 c -1.76549,2.17308 -12.85547,23.79102 -12.85547,23.79102 0,0 20.24736,-13.81194 22.01368,-15.98438 l 31.88867,-39.25195 c 1.76553,-2.17315 1.16768,-5.64629 -1.36914,-7.80859 -1.26837,-1.08114 -2.77466,-1.62222 -4.1836,-1.62305 z"
       transform="scale(0.26458333)" />
  </g>
</svg>
