<?xml version="1.0" encoding="UTF-8" standalone="no"?>
<!-- Created with Inkscape (http://www.inkscape.org/) -->

<svg
   width="17.601509mm"
   height="17.60099mm"
   viewBox="0 0 17.601509 17.60099"
   version="1.1"
   id="svg56067"
   inkscape:version="1.1.1 (3bf5ae0d25, 2021-09-20)"
   xmlns:inkscape="http://www.inkscape.org/namespaces/inkscape"
   xmlns:sodipodi="http://sodipodi.sourceforge.net/DTD/sodipodi-0.dtd"
   xmlns="http://www.w3.org/2000/svg"
   xmlns:svg="http://www.w3.org/2000/svg">
  <sodipodi:namedview
     id="namedview56069"
     pagecolor="#ffffff"
     bordercolor="#666666"
     borderopacity="1.0"
     inkscape:pageshadow="2"
     inkscape:pageopacity="0.0"
     inkscape:pagecheckerboard="0"
     inkscape:document-units="mm"
     showgrid="false"
     fit-margin-top="0"
     fit-margin-left="0"
     fit-margin-right="0"
     fit-margin-bottom="0"
     inkscape:zoom="0.77771465"
     inkscape:cx="-188.37243"
     inkscape:cy="13.501096"
     inkscape:window-width="2560"
     inkscape:window-height="1361"
     inkscape:window-x="1911"
     inkscape:window-y="-9"
     inkscape:window-maximized="1"
     inkscape:current-layer="layer1" />
  <defs
     id="defs56064" />
  <g
     inkscape:label="Ebene 1"
     inkscape:groupmode="layer"
     id="layer1"
     transform="translate(-154.83842,-144.9727)">
    <path
       id="path55841"
       style="fill:#000000;fill-opacity:1;stroke:none;stroke-width:1.381;stroke-miterlimit:4;stroke-dasharray:none;stroke-opacity:1"
       d="m 163.63943,144.9727 a 8.8007287,8.8007287 0 0 0 -8.80101,8.8005 8.8007287,8.8007287 0 0 0 8.80101,8.80049 8.8007287,8.8007287 0 0 0 8.8005,-8.80049 8.8007287,8.8007287 0 0 0 -8.8005,-8.8005 z m 4.55218,5.25343 c 0.31391,0 0.62936,0.0309 0.9462,0.0925 0.31684,0.0616 0.58972,0.1409 0.81855,0.23771 v 0.92397 c -0.30511,-0.12028 -0.59841,-0.2066 -0.88005,-0.25941 -0.2787,-0.0557 -0.54112,-0.0837 -0.78755,-0.0837 -0.35498,0 -0.62958,0.0647 -0.8232,0.19379 -0.1907,0.12908 -0.28577,0.32267 -0.28577,0.58084 0,0.14962 0.0309,0.27268 0.0925,0.36949 0.0645,0.0968 0.15087,0.17782 0.25941,0.24236 0.10855,0.0616 0.23332,0.11121 0.37414,0.14935 0.14082,0.0381 0.29013,0.0731 0.44855,0.10541 0.24937,0.0528 0.48724,0.1146 0.71314,0.18501 0.22883,0.0675 0.43117,0.16307 0.6072,0.28628 0.17602,0.12322 0.31538,0.2842 0.41806,0.4837 0.10268,0.19656 0.15399,0.44902 0.15399,0.75706 0,0.31684 -0.0584,0.59092 -0.1757,0.82268 -0.11735,0.23177 -0.28468,0.42416 -0.50178,0.57671 -0.21416,0.14962 -0.47537,0.26101 -0.78341,0.33435 -0.30804,0.0733 -0.64563,0.11007 -1.01234,0.11007 -0.31978,0 -0.6347,-0.0321 -0.94568,-0.0966 -0.30804,-0.0616 -0.56513,-0.14966 -0.7705,-0.26407 v -0.91105 c 0.29044,0.12614 0.5738,0.21882 0.84957,0.2775 0.27577,0.0557 0.56032,0.0832 0.85369,0.0832 0.17016,0 0.33749,-0.0129 0.50178,-0.0393 0.16429,-0.0293 0.31068,-0.0777 0.43977,-0.14521 0.13201,-0.0675 0.23756,-0.15843 0.31677,-0.27285 0.0792,-0.11735 0.11886,-0.26134 0.11886,-0.4315 0,-0.14962 -0.0367,-0.26976 -0.11008,-0.3607 -0.0733,-0.0939 -0.17305,-0.17025 -0.2992,-0.22893 -0.12615,-0.0587 -0.26843,-0.10535 -0.42685,-0.14056 -0.15549,-0.0381 -0.31939,-0.0749 -0.49247,-0.11007 -0.22884,-0.0499 -0.44749,-0.10874 -0.65578,-0.17621 -0.20829,-0.0704 -0.39193,-0.16549 -0.55035,-0.28577 -0.15842,-0.12322 -0.2844,-0.27889 -0.37828,-0.46664 -0.0939,-0.18776 -0.14107,-0.42272 -0.14107,-0.70435 0,-0.31098 0.0542,-0.58043 0.16278,-0.80926 0.10855,-0.23176 0.25546,-0.42243 0.44028,-0.57205 0.18776,-0.15256 0.40641,-0.26566 0.65578,-0.339 0.2523,-0.0763 0.53513,-0.11472 0.84904,-0.11472 z m -11.15953,0.11007 h 1.13069 l 1.93631,2.7373 c 0.42246,0.60141 0.76588,1.13551 1.02991,1.60197 h 0.0264 c -0.0352,-0.76571 -0.0527,-1.32314 -0.0527,-1.67225 v -2.66702 h 1.07797 v 5.88801 h -1.1312 l -1.91823,-2.71043 c -0.33738,-0.46939 -0.68663,-1.01396 -1.04748,-1.63297 h -0.0264 c 0.0352,0.72169 0.0527,1.28084 0.0527,1.6769 v 2.6665 h -1.07798 z m 7.56027,0 h 0.91519 l -1.67225,6.98407 h -0.91519 z" />
  </g>
</svg>
