<?xml version="1.0" encoding="UTF-8" standalone="no"?>
<!-- Created with Inkscape (http://www.inkscape.org/) -->

<svg
   width="14.53146mm"
   height="11.895205mm"
   viewBox="0 0 14.53146 11.895205"
   version="1.1"
   id="svg28317"
   inkscape:version="1.1.1 (3bf5ae0d25, 2021-09-20)"
   xmlns:inkscape="http://www.inkscape.org/namespaces/inkscape"
   xmlns:sodipodi="http://sodipodi.sourceforge.net/DTD/sodipodi-0.dtd"
   xmlns="http://www.w3.org/2000/svg"
   xmlns:svg="http://www.w3.org/2000/svg">
  <sodipodi:namedview
     id="namedview28319"
     pagecolor="#ffffff"
     bordercolor="#666666"
     borderopacity="1.0"
     inkscape:pageshadow="2"
     inkscape:pageopacity="0.0"
     inkscape:pagecheckerboard="0"
     inkscape:document-units="mm"
     showgrid="false"
     fit-margin-top="0"
     fit-margin-left="0"
     fit-margin-right="0"
     fit-margin-bottom="0"
     inkscape:zoom="17.597674"
     inkscape:cx="47.080087"
     inkscape:cy="26.679663"
     inkscape:window-width="2560"
     inkscape:window-height="1361"
     inkscape:window-x="1911"
     inkscape:window-y="-9"
     inkscape:window-maximized="1"
     inkscape:current-layer="layer1" />
  <defs
     id="defs28314" />
  <g
     inkscape:label="Ebene 1"
     inkscape:groupmode="layer"
     id="layer1"
     transform="translate(-101.60025,-165.85652)">
    <rect
       style="fill:none;stroke:#e9e9e9;stroke-width:0.758862;stroke-miterlimit:4;stroke-dasharray:none;stroke-opacity:1"
       id="rect12157-3-5-36"
       width="6.0863333"
       height="4.225173"
       x="117.92365"
       y="118.88516"
       transform="matrix(0.91526689,0.40284801,0,1,0,0)" />
    <path
       id="rect16240-1-1"
       style="fill:#999999;fill-opacity:1;stroke:#999999;stroke-width:0.795921;stroke-miterlimit:4;stroke-dasharray:none;stroke-opacity:1"
       d="M 23.201172 3.0449219 L 22.601562 3.4179688 L 22.625 18.792969 L 1.7148438 32.306641 L 3.0097656 33.642578 L 24.572266 19.707031 L 43.601562 28.068359 L 43.634766 25.208984 L 43.158203 25.003906 L 25.236328 17.126953 L 25.228516 4.0175781 L 23.201172 3.0449219 z "
       transform="matrix(0.26458333,0,0,0.26458333,101.60025,165.85652)" />
    <g
       id="g31336-3-2"
       transform="matrix(0.185195,0,0,0.185195,101.29821,157.46237)">
      <rect
         style="fill:#e9e9e9;fill-opacity:1;stroke:none;stroke-width:3.165;stroke-miterlimit:4;stroke-dasharray:none;stroke-opacity:1"
         id="rect30715-5-7"
         width="23.304123"
         height="20.242268"
         x="45.247425"
         y="89.314445"
         ry="5.4432988" />
      <path
         id="rect30863-0-5"
         style="fill:#e9e9e9;stroke-width:2.17177;fill-opacity:1"
         d="m 78.622531,90.212552 c -0.391855,-0.0017 -0.88679,0.162142 -1.511503,0.541889 l -6.75676,4.107395 c -0.01688,0.01026 -0.03393,0.01918 -0.05079,0.02852 v 9.736184 l 6.807548,3.58378 c 3.360153,1.76899 2.971937,-2.09335 2.971937,-4.69385 v -8.068183 c 0,-2.112902 0.237609,-5.228128 -1.460433,-5.235736 z" />
    </g>
    <g
       id="g30504">
      <path
         id="rect16240-6"
         style="fill:#e9e9e9;stroke:#e9e9e9;stroke-width:0.210587;stroke-opacity:1;fill-opacity:1"
         d="m 107.49977,176.90202 1.44982,-0.86887 v 0.66932 l -0.97892,0.56606 z"
         sodipodi:nodetypes="ccccc" />
      <rect
         style="fill:#e9e9e9;fill-opacity:1;stroke:#e9e9e9;stroke-width:0.213037;stroke-miterlimit:4;stroke-dasharray:none;stroke-opacity:1"
         id="rect16240-1-7-5"
         width="7.0645967"
         height="0.49211439"
         x="-45.870132"
         y="201.70564"
         transform="matrix(0.83987642,-0.54277767,0.6955137,0.71851283,0,0)" />
      <rect
         style="fill:none;stroke:#e9e9e9;stroke-width:0.758862;stroke-miterlimit:4;stroke-dasharray:none;stroke-opacity:1"
         id="rect12157-9"
         width="6.0863333"
         height="4.225173"
         x="111.50205"
         y="125.26057"
         transform="matrix(0.91526689,0.40284801,0,1,0,0)" />
      <rect
         style="fill:#e9e9e9;fill-opacity:1;stroke:#e9e9e9;stroke-width:0.213037;stroke-miterlimit:4;stroke-dasharray:none;stroke-opacity:1"
         id="rect16240-1-7-4-5"
         width="7.0645967"
         height="0.49211439"
         x="-43.487801"
         y="206.98174"
         transform="matrix(0.83987642,-0.54277767,0.6955137,0.71851283,0,0)" />
      <path
         id="rect16240-6-7-8"
         style="fill:#e9e9e9;stroke:#e9e9e9;stroke-width:0.210587;stroke-opacity:1;fill-opacity:1"
         d="m 113.04027,173.46597 0.69658,-0.40239 0.006,0.43554 -0.14569,0.001 z"
         sodipodi:nodetypes="ccccc" />
    </g>
  </g>
</svg>
