<?xml version="1.0" encoding="UTF-8" standalone="no"?>
<!-- Created with Inkscape (http://www.inkscape.org/) -->

<svg
   width="17.18862mm"
   height="17.045469mm"
   viewBox="0 0 17.18862 17.045469"
   version="1.1"
   id="svg56158"
   inkscape:version="1.1.1 (3bf5ae0d25, 2021-09-20)"
   xmlns:inkscape="http://www.inkscape.org/namespaces/inkscape"
   xmlns:sodipodi="http://sodipodi.sourceforge.net/DTD/sodipodi-0.dtd"
   xmlns="http://www.w3.org/2000/svg"
   xmlns:svg="http://www.w3.org/2000/svg">
  <sodipodi:namedview
     id="namedview56160"
     pagecolor="#ffffff"
     bordercolor="#666666"
     borderopacity="1.0"
     inkscape:pageshadow="2"
     inkscape:pageopacity="0.0"
     inkscape:pagecheckerboard="0"
     inkscape:document-units="mm"
     showgrid="false"
     fit-margin-top="0"
     fit-margin-left="0"
     fit-margin-right="0"
     fit-margin-bottom="0"
     inkscape:zoom="6.2217172"
     inkscape:cx="50.227291"
     inkscape:cy="6.9916389"
     inkscape:window-width="2560"
     inkscape:window-height="1361"
     inkscape:window-x="1911"
     inkscape:window-y="-9"
     inkscape:window-maximized="1"
     inkscape:current-layer="layer1" />
  <defs
     id="defs56155" />
  <g
     inkscape:label="Ebene 1"
     inkscape:groupmode="layer"
     id="layer1"
     transform="translate(-115.24074,-127.21953)">
    <path
       id="path55700"
       style="fill:#000000;fill-opacity:1;stroke:none;stroke-width:1.381;stroke-miterlimit:4;stroke-dasharray:none;stroke-opacity:1"
       d="m 123.83505,127.21953 a 8.5945357,8.5227058 0 0 0 -8.59431,8.52299 8.5945357,8.5227058 0 0 0 8.59431,8.52248 8.5945357,8.5227058 0 0 0 8.59431,-8.52248 8.5945357,8.5227058 0 0 0 -8.59431,-8.52299 z m -4.97231,5.37589 c 0.40344,0 0.76303,0.0662 1.07797,0.19896 0.31755,0.13274 0.58444,0.31916 0.80047,0.55862 0.21864,0.23946 0.38365,0.5257 0.49558,0.85886 0.11452,0.33056 0.17156,0.69473 0.17156,1.09296 0,0.39824 -0.057,0.76393 -0.17156,1.09709 -0.11193,0.33056 -0.27694,0.61578 -0.49558,0.85525 -0.21603,0.23946 -0.48292,0.42536 -0.80047,0.5581 -0.31494,0.13275 -0.67453,0.19947 -1.07797,0.19947 -0.40344,0 -0.76352,-0.0667 -1.08107,-0.19947 -0.31494,-0.13274 -0.58183,-0.31864 -0.80047,-0.5581 -0.21603,-0.23947 -0.38157,-0.52469 -0.49609,-0.85525 -0.11192,-0.33316 -0.16795,-0.69885 -0.16795,-1.09709 0,-0.39823 0.056,-0.7624 0.16795,-1.09296 0.11452,-0.33316 0.28006,-0.6194 0.49609,-0.85886 0.21864,-0.23946 0.48553,-0.42588 0.80047,-0.55862 0.31755,-0.13275 0.67763,-0.19896 1.08107,-0.19896 z m 4.45089,0.0977 h 0.81236 l -1.48363,6.19601 H 121.83 Z m 0.91778,0 h 1.01906 l 0.62838,2.08101 c 0.19001,0.65332 0.34383,1.24413 0.46096,1.77251 h 0.0232 c 0.11453,-0.56742 0.24746,-1.14907 0.39843,-1.74512 l 0.53846,-2.1084 h 0.98392 l 0.53899,2.1084 c 0.15096,0.59085 0.28338,1.17249 0.39791,1.74512 h 0.0238 c 0.14315,-0.62469 0.29645,-1.2155 0.46044,-1.77251 l 0.6289,-2.08101 h 1.01906 l -1.65933,5.22397 h -0.95292 l -0.58549,-2.34249 c -0.13275,-0.52838 -0.24989,-1.03108 -0.3514,-1.5074 h -0.0233 c -0.10151,0.48673 -0.21865,0.98944 -0.3514,1.5074 l -0.58601,2.34249 h -0.95239 z m -5.36867,0.71055 c -0.22644,0 -0.43424,0.0392 -0.62425,0.11731 -0.19001,0.0781 -0.35401,0.19624 -0.49196,0.35502 -0.13795,0.15877 -0.24592,0.35792 -0.32401,0.59738 -0.0781,0.23685 -0.11731,0.51392 -0.11731,0.83147 0,0.31755 0.0392,0.59615 0.11731,0.83561 0.0781,0.23686 0.18606,0.43499 0.32401,0.59376 0.13795,0.15617 0.30195,0.27433 0.49196,0.35502 0.19001,0.0781 0.39781,0.1173 0.62425,0.1173 0.22645,0 0.43476,-0.0392 0.62477,-0.1173 0.19001,-0.0807 0.35401,-0.19885 0.49196,-0.35502 0.13795,-0.15877 0.24593,-0.3569 0.32401,-0.59376 0.0781,-0.23946 0.11731,-0.51806 0.11731,-0.83561 0,-0.31755 -0.0392,-0.59462 -0.11731,-0.83147 -0.0781,-0.23946 -0.18606,-0.43861 -0.32401,-0.59738 -0.13795,-0.15878 -0.30195,-0.27693 -0.49196,-0.35502 -0.19001,-0.0781 -0.39832,-0.11731 -0.62477,-0.11731 z" />
  </g>
</svg>
